<?xml version="1.0" encoding="UTF-8"?>
<svg id="Layer_1" data-name="Layer 1" xmlns="http://www.w3.org/2000/svg" viewBox="0 0 192 192">
  <defs>
    <style>
      .cls-1 {
        stroke: #f9e2af;
      }

      .cls-1, .cls-2, .cls-3 {
        fill: none;
        stroke-miterlimit: 10;
        stroke-width: 5px;
      }

      .cls-2 {
        stroke: #89dceb;
      }

      .cls-3 {
        stroke: #a6e3a1;
      }

      .cls-4 {
        fill: #1e1e2e;
        stroke-width: 0px;
      }
    </style>
  </defs>
  <rect class="cls-4" x=".07" width="192" height="192"/>
  <g>
    <path class="cls-1" d="M114.71,85.31c0,4.43-3.59,8.02-8.02,8.02s-8.02-3.59-8.02-8.02,3.59-8.02,8.02-8.02,8.02,3.59,8.02,8.02"/>
    <path class="cls-3" d="M93.33,125.39l18.71-18.71c2.67-2.67,8.02-2.67,10.69,0l8.02,8.02"/>
    <path class="cls-3" d="M61.26,104.02l10.69-10.69c2.67-2.67,8.02-2.67,10.69,0l21.38,21.38"/>
    <path class="cls-2" d="M69.28,66.61h53.44c4.44,0,8.02,3.58,8.02,8.02v42.76c0,4.44-3.58,8.02-8.02,8.02h-53.44c-4.43,0-8.02-3.59-8.02-8.02v-42.76c0-4.44,3.58-8.02,8.02-8.02"/>
  </g>
</svg>