<?xml version="1.0" encoding="UTF-8"?>
<svg id="Layer_1" data-name="Layer 1" xmlns="http://www.w3.org/2000/svg" viewBox="0 0 192 192">
  <defs>
    <style>
      .cls-1 {
        fill: #a6e3a1;
      }

      .cls-1, .cls-2 {
        stroke-width: 0px;
      }

      .cls-2 {
        fill: #1e1e2e;
      }
    </style>
  </defs>
  <rect class="cls-2" x=".07" width="192" height="192"/>
  <path class="cls-1" d="M73.22,63.1c.87,0,1.73.31,2.42.93,0,0,6.06,7.87,6.16,7.97,1.41,1.4,1.41,3.7,0,5.1-.09.09-5.38,6.73-5.38,6.73-.74.92-.92,2.17-.48,3.27,5.64,14.04,15.4,23.8,29.02,28.99.38.15.77.22,1.17.22.73,0,1.46-.24,2.05-.71,0,0,6.64-5.29,6.73-5.38.68-.68,1.61-1.02,2.55-1.02s1.87.34,2.55,1.02c.1.1,7.98,6.16,7.98,6.16,1.28,1.41,1.23,3.61-.28,5.13h.01l-3,3.45c-2.54,2.54-5.99,3.94-9.74,3.94-19.71,0-51.86-28.97-51.86-51.86,0-3.74,1.4-7.2,3.77-9.58l3.78-3.31c.7-.7,1.63-1.05,2.55-1.05M73.22,58.1c-2.23,0-4.33.84-5.94,2.37l-3.69,3.22c-.09.08-.17.15-.25.24-3.32,3.34-5.23,8.12-5.23,13.11,0,11.95,7.32,25.84,20.07,38.12,12.02,11.56,26.11,18.74,36.79,18.74,5.08,0,9.79-1.92,13.27-5.41.08-.08.16-.17.24-.25l3-3.45s.05-.06.08-.09c3.06-3.39,3.14-8.33.13-11.67-.2-.22-.42-.43-.66-.61-2.64-2.03-6.89-5.31-7.73-5.97-1.56-1.44-3.67-2.25-5.84-2.25s-4.31.83-5.88,2.29c-.63.51-3.54,2.83-5.74,4.59-11.51-4.65-19.87-13.02-24.89-24.91,1.75-2.19,4.04-5.06,4.57-5.72,1.5-1.59,2.32-3.67,2.33-5.88,0-2.19-.81-4.26-2.29-5.85-.67-.86-3.93-5.09-5.96-7.73-.18-.23-.38-.45-.6-.65-1.58-1.44-3.63-2.23-5.78-2.23h0Z"/>
</svg>