<?xml version="1.0" encoding="UTF-8"?>
<svg id="Layer_1" data-name="Layer 1" xmlns="http://www.w3.org/2000/svg" viewBox="0 0 192 192">
  <defs>
    <style>
      .cls-1 {
        fill: none;
        stroke: #e64553;
        stroke-linecap: round;
        stroke-linejoin: round;
        stroke-width: 5px;
      }

      .cls-2 {
        fill: #eff1f5;
        stroke-width: 0px;
      }
    </style>
  </defs>
  <rect class="cls-2" x="0" y="0" width="192" height="192"/>
  <g>
    <polyline class="cls-1" points="119.48 65.82 131.23 65.82 131.23 130.87 60.77 130.87 60.77 65.82 72.52 65.82"/>
    <path class="cls-1" d="M96,130.87v-65.05c.56-.83,1.84-2.5,4.11-3.62,1.7-.84,3.27-1.03,4.21-1.08h15.16v59.09h-13.99c-1.12.02-2.97.24-4.79,1.37-4.62,2.85-4.7,8.8-4.7,9.29Z"/>
    <path class="cls-1" d="M96,130.87v-65.05c-.56-.83-1.84-2.5-4.11-3.62-1.7-.84-3.27-1.03-4.21-1.08h-15.16s0,59.09,0,59.09h13.99c1.12.02,2.97.24,4.79,1.37,4.62,2.85,4.7,8.8,4.7,9.29Z"/>
  </g>
</svg>