<?xml version="1.0" encoding="UTF-8"?>
<svg id="Layer_1" data-name="Layer 1" xmlns="http://www.w3.org/2000/svg" viewBox="0 0 192 192">
  <defs>
    <style>
      .cls-1 {
        fill: #eff1f5;
      }

      .cls-1, .cls-2 {
        stroke-width: 0px;
      }

      .cls-3 {
        fill: none;
        stroke: #eff1f5;
        stroke-miterlimit: 10;
        stroke-width: 5px;
      }

      .cls-2 {
        fill: #303446;
      }
    </style>
  </defs>
  <rect class="cls-2" x="0" y="0" width="192" height="192"/>
  <g>
    <path class="cls-3" d="M96,124.32c10.17,0,20.35,0,30.52,0,2.5,0,3.47-.99,3.47-3.53,0-12.77,0-25.53,0-38.3,0-2.47-.96-3.44-3.42-3.44-4.37,0-8.73.01-13.1-.02-1.96-.01-2.85-.75-3.33-2.63-.55-2.15-1.08-4.3-1.65-6.44-.41-1.56-1.33-2.26-2.94-2.27-6.38,0-12.77,0-19.15,0-1.6,0-2.51.71-2.92,2.28-.55,2.06-1.06,4.13-1.58,6.2-.56,2.2-1.4,2.86-3.64,2.86-4.28,0-8.57,0-12.85,0-2.46,0-3.41.97-3.41,3.45,0,12.77,0,25.53,0,38.3,0,2.54.97,3.52,3.48,3.52,10.17,0,20.35,0,30.52,0Z"/>
    <path class="cls-3" d="M96.05,90.36c-6.21-.04-11.29,4.97-11.37,11.19-.07,6.23,4.95,11.37,11.14,11.41,6.38.04,11.48-4.97,11.49-11.28,0-6.22-5.03-11.28-11.27-11.32Z"/>
    <path class="cls-1" d="M120.16,84.7c.53,0,1.07-.04,1.6,0,1.45.14,2.51,1.27,2.55,2.68.04,1.47-.87,2.63-2.33,2.85-1.26.19-2.54.19-3.81,0-1.46-.22-2.35-1.38-2.3-2.87.05-1.37,1.05-2.49,2.44-2.64.61-.07,1.23-.01,1.85-.01,0,0,0,0,0-.01Z"/>
  </g>
</svg>