<?xml version="1.0" encoding="UTF-8"?>
<svg id="Layer_1" data-name="Layer 1" xmlns="http://www.w3.org/2000/svg" viewBox="0 0 192 192">
  <defs>
    <style>
      .cls-1 {
        fill: #e78284;
      }

      .cls-1, .cls-2, .cls-3, .cls-4, .cls-5, .cls-6 {
        stroke-width: 0px;
      }

      .cls-2 {
        fill: #eff1f5;
      }

      .cls-7 {
        fill: none;
        stroke: #eff1f5;
        stroke-linecap: round;
        stroke-linejoin: round;
        stroke-width: 5px;
      }

      .cls-3 {
        fill: #303446;
      }

      .cls-4 {
        fill: #8caaee;
      }

      .cls-5 {
        fill: #e5c890;
      }

      .cls-6 {
        fill: #a6d189;
      }
    </style>
  </defs>
  <rect class="cls-3" x="0" y="0" width="192" height="192"/>
  <g>
    <rect class="cls-7" x="61.52" y="78.99" width="68.96" height="34.01" rx="17.01" ry="17.01"/>
    <g>
      <circle class="cls-6" cx="111.97" cy="101.66" r="2.83"/>
      <circle class="cls-1" cx="117.39" cy="96" r="2.83"/>
      <circle class="cls-5" cx="111.97" cy="90.75" r="2.83"/>
      <circle class="cls-4" cx="106.47" cy="96" r="2.83"/>
    </g>
    <path class="cls-2" d="M84.57,93.6h-3.07v-3.07c0-1.44-1.17-2.61-2.61-2.61s-2.61,1.17-2.61,2.61v3.07h-3.07c-1.44,0-2.61,1.17-2.61,2.61s1.17,2.61,2.61,2.61h3.07v3.07c0,1.44,1.17,2.61,2.61,2.61s2.61-1.17,2.61-2.61v-3.07h3.07c1.44,0,2.61-1.17,2.61-2.61s-1.17-2.61-2.61-2.61Z"/>
  </g>
</svg>