<?xml version="1.0" encoding="UTF-8"?>
<svg id="Layer_1" data-name="Layer 1" xmlns="http://www.w3.org/2000/svg" viewBox="0 0 192 192">
  <defs>
    <style>
      .cls-1 {
        stroke: #f5a97f;
      }

      .cls-1, .cls-2 {
        fill: none;
        stroke-linecap: round;
        stroke-linejoin: round;
        stroke-width: 5px;
      }

      .cls-3 {
        fill: #24273a;
        stroke-width: 0px;
      }

      .cls-2 {
        stroke: #eed49f;
      }
    </style>
  </defs>
  <rect class="cls-3" x=".07" y="0" width="192" height="192"/>
  <g>
    <path class="cls-1" d="M123.74,80.89c-.78-2.45-2.23-5.08-4.88-6.98-5.81-4.17-15.86-3.19-21.76,3.27-.05.06-.15.06-.2,0-5.9-6.46-15.95-7.44-21.76-3.27-2.65,1.9-4.1,4.53-4.88,6.98-1.03,3.24-1.02,6.71-.17,10,1.1,4.27,3.38,10.42,8.21,16.51,5.98,7.53,17.78,12.82,18.65,13.2.04.02.07.02.1,0,4-1.66,12.46-5.41,18.65-13.2,4.83-6.08,7.11-12.23,8.21-16.51.85-3.29.86-6.76-.17-10Z"/>
    <path class="cls-2" d="M57.65,99.67c2.56,4.51,6.27,9.46,10.66,9.39,7.92-.12,10.23-16.4,19.37-17.32,5.88-.59,8.5,5.79,16.4,10.11,1.15.63,2.46.94,3.78.94h26.48"/>
  </g>
</svg>