<?xml version="1.0" encoding="UTF-8"?>
<svg id="Layer_1" data-name="Layer 1" xmlns="http://www.w3.org/2000/svg" viewBox="0 0 192 192">
  <defs>
    <style>
      .cls-1 {
        fill: none;
        stroke: #ca9ee6;
        stroke-linecap: round;
        stroke-linejoin: round;
        stroke-width: 5px;
      }

      .cls-2 {
        fill: #303446;
        stroke-width: 0px;
      }
    </style>
  </defs>
  <rect class="cls-2" x="0" y="0" width="192" height="192"/>
  <g>
    <path class="cls-1" d="M96.11,62.42l-15.55,13.18c-1.21,1.03-1.99,2.48-2.16,4.06l-1.24,11.05c-.03.3-.11.59-.23.86l-6.57,14.95c-1.05,2.39-.59,5.18,1.18,7.1l11.31,12.31c.42.46.97.77,1.58.9,3.33.05,7.41.4,11.98,1.43,3.81.85,7.09,1.99,9.78,3.11.5.1,1.3.21,2.28.05.75-.12,1.48-.38,2.15-.76h0s0,0,0,0c1.1,0,2.07-.74,2.37-1.8l3.39-12.1c.08-.29.2-.56.36-.81l4.7-7.28c1-1.55.99-3.53-.03-5.07-2.67-4.07-7.44-12.81-6.96-22.72.04-.77-.19-1.52-.68-2.11-2.42-2.87-9.93-11.78-13.49-16-1.06-1.25-2.92-1.41-4.17-.35Z"/>
    <path class="cls-1" d="M103.22,66.25c-.31,1.86-.93,4.6-2.3,7.67-1.77,3.96-2.99,4.46-4.24,7.87-1.44,3.94-1.3,7.36-1.17,9.78.26,5.04,1.76,9.03,3,11.59,2.44.73,5.9,2.06,9.52,4.59,4.25,2.96,6.97,6.32,8.52,8.59"/>
    <path class="cls-1" d="M77.11,91.16s10.7,7.04,10.57,13.3c-.13,6.26.39,16.96-4.17,22.17"/>
    <path class="cls-1" d="M87.68,104.46s10.43-1.96,10.83-1.3"/>
  </g>
</svg>