<?xml version="1.0" encoding="UTF-8"?>
<svg id="Layer_1" data-name="Layer 1" xmlns="http://www.w3.org/2000/svg" viewBox="0 0 192 192">
  <defs>
    <style>
      .cls-1 {
        fill: #24273a;
        stroke-width: 0px;
      }

      .cls-2 {
        fill: none;
        stroke: #91d7e3;
        stroke-linecap: round;
        stroke-linejoin: round;
        stroke-width: 5px;
      }
    </style>
  </defs>
  <rect class="cls-1" x=".07" y="0" width="192" height="192"/>
  <g>
    <path class="cls-2" d="M95.99,131.78c-.91,0-1.82,0-2.73,0-.82,0-1.59-.2-2.24-.73-.77-.62-1.22-1.4-1.31-2.39-.05-.58,0-1.17-.09-1.75-.2-1.42-.8-2.65-1.73-3.73-1.3-1.5-2.95-2.38-4.89-2.71-1.52-.26-3-.05-4.41.6-.77.36-1.47.85-2.06,1.47-.56.58-1.22.93-2.02.99-.89.07-1.7-.15-2.33-.78-1.46-1.43-2.9-2.87-4.32-4.32-.6-.61-.89-1.38-.95-2.24-.06-.81.11-1.58.54-2.28.15-.25.33-.47.53-.67.43-.44.87-.88,1.31-1.31.98-.97,1.53-2.15,1.59-3.53.1-2.23-.8-3.97-2.65-5.22-.87-.59-1.83-.82-2.86-.83-.59,0-1.17,0-1.76,0-1.61-.02-3.03-1.21-3.32-2.79-.05-.26-.07-.53-.07-.8,0-1.84,0-3.67,0-5.51,0-1.19.47-2.16,1.42-2.88.49-.37,1.04-.57,1.66-.64.5-.05,1-.03,1.5-.04,1.62-.01,3.01-.6,4.19-1.68,1.29-1.18,2.04-2.65,2.22-4.37.2-1.89-.28-3.6-1.59-5.03-.45-.49-.94-.94-1.39-1.42-1.16-1.24-1.46-2.68-.96-4.29.19-.62.55-1.15,1.01-1.6,1.02-1.02,2.03-2.04,3.05-3.05,1.57-1.56,4.24-1.56,5.81,0,.58.57,1.12,1.18,1.76,1.69,1.04.83,2.23,1.26,3.56,1.33,2,.12,3.73-.54,5.17-1.88,1.13-1.05,1.83-2.36,2-3.92.06-.57.03-1.13.03-1.7.01-.69.16-1.34.54-1.91.62-.92,1.46-1.48,2.59-1.58.34-.03.69-.03,1.03-.03,1.62,0,3.24,0,4.86,0,.62,0,1.22.09,1.77.39,1.03.57,1.65,1.43,1.82,2.6.09.66.06,1.33.04,1.99-.09,2.49,1.66,4.67,3.85,5.38,1.63.53,3.18.38,4.67-.45.38-.21.71-.5,1.03-.81.44-.43.87-.86,1.3-1.3,1.42-1.42,3.59-1.53,5.15-.28.08.06.14.13.21.2,1.35,1.35,2.7,2.7,4.05,4.05.99.99,1.19,2.15.72,3.45-.15.4-.41.74-.72,1.04-1.25,1.22-1.98,2.7-2.16,4.43-.19,1.8.21,3.46,1.13,5.01.87,1.46,2.08,2.52,3.63,3.2.79.35,1.64.5,2.51.53.34.01.68.01,1.01.04,1.47.12,2.81,1.35,3.03,2.81.04.24.06.49.06.74,0,1.83,0,3.66,0,5.49,0,.94-.28,1.78-.93,2.48-.66.71-1.49,1.06-2.44,1.1-.6.03-1.2-.03-1.8.03-1.19.12-2.25.55-3.18,1.28-1.56,1.23-2.46,2.85-2.65,4.82-.16,1.59.19,3.07,1.12,4.39.29.42.65.78,1.01,1.14,1.04,1.04,1.08,2.58.12,3.69-.16.19-.33.36-.51.54-1.55,1.55-3.09,3.09-4.64,4.64-.56.56-1.23.9-2.04.88-.68-.02-1.29-.26-1.78-.74-.48-.47-.97-.95-1.55-1.3-.9-.56-1.88-.85-2.93-.92-.97-.07-1.92.05-2.82.4-2.55,1.01-4.1,2.83-4.42,5.6-.06.47,0,.95-.02,1.42-.01.51-.06,1.01-.28,1.49-.55,1.2-1.48,1.9-2.8,2.07-.29.04-.58.04-.88.04-.79,0-1.59,0-2.38,0Z"/>
    <circle class="cls-2" cx="96.05" cy="95.98" r="10"/>
  </g>
</svg>