<?xml version="1.0" encoding="UTF-8"?>
<svg id="Layer_1" data-name="Layer 1" xmlns="http://www.w3.org/2000/svg" viewBox="0 0 192 192">
  <defs>
    <style>
      .cls-1 {
        fill: none;
        stroke: #f9e2af;
        stroke-linecap: round;
        stroke-linejoin: round;
        stroke-width: 5px;
      }

      .cls-2 {
        fill: #1e1e2e;
        stroke-width: 0px;
      }
    </style>
  </defs>
  <rect class="cls-2" x=".07" width="192" height="192"/>
  <g>
    <path class="cls-1" d="M81.45,60.48v71.04h0c-8.03,0-14.55-6.51-14.55-14.55v-41.95c0-8.03,6.51-14.55,14.55-14.55h0Z"/>
    <rect class="cls-1" x="81.45" y="60.48" width="14.55" height="23.68"/>
    <rect class="cls-1" x="96" y="60.48" width="14.55" height="23.68"/>
    <path class="cls-1" d="M125.1,75.02v9.13h-14.55v-23.68h0c8.03,0,14.55,6.51,14.55,14.55Z"/>
    <path class="cls-1" d="M125.1,84.16v32.82c0,8.03-6.51,14.55-14.55,14.55h0v-23.68h-29.1v-23.68h43.64Z"/>
    <rect class="cls-1" x="81.45" y="107.84" width="14.55" height="23.68"/>
    <rect class="cls-1" x="96" y="107.84" width="14.55" height="23.68"/>
  </g>
</svg>