<?xml version="1.0" encoding="UTF-8"?>
<svg id="Layer_1" data-name="Layer 1" xmlns="http://www.w3.org/2000/svg" viewBox="0 0 192 192">
  <defs>
    <style>
      .cls-1 {
        stroke: #df8e1d;
      }

      .cls-1, .cls-2 {
        fill: none;
        stroke-linecap: round;
        stroke-linejoin: round;
        stroke-width: 5px;
      }

      .cls-3 {
        fill: #eff1f5;
        stroke-width: 0px;
      }

      .cls-2 {
        stroke: #1e1e2e;
      }
    </style>
  </defs>
  <rect class="cls-3" x="0" y="0" width="192" height="192"/>
  <g>
    <path class="cls-1" d="M110.59,93.43h2.21c4.35,0,8.34,1.54,11.47,4.09,4.06-3.71,6.63-9.03,6.63-14.96,0-11.19-9.07-20.27-20.27-20.27-9.73,0-17.84,6.85-19.81,15.99,8.84,1.35,16.24,7.21,19.76,15.15Z"/>
    <path class="cls-2" d="M112.79,93.43h-2.21c-4.03-9.07-13.13-15.44-23.65-15.44h0c-14.22,0-25.86,11.64-25.86,25.86s10.81,25.01,24.32,25.81v.05h27.41c10.02,0,18.14-8.12,18.14-18.14h0c0-10.02-8.12-18.14-18.14-18.14Z"/>
  </g>
</svg>